<svg xmlns="http://www.w3.org/2000/svg" xmlns:xlink="http://www.w3.org/1999/xlink" width="155" zoomAndPan="magnify" viewBox="0 0 116.25 141.749996" height="189" preserveAspectRatio="xMidYMid meet" version="1.0"><defs><g/></defs><g fill="#000000" fill-opacity="1"><g transform="translate(37.02081, 68.481632)"><g><path d="M 0.34375 -24.453125 L 0.34375 -24.09375 C 2.515625 -24.09375 3 -23.53125 3.765625 -21.0625 L 10.203125 0 L 13.125 0 L 19.515625 -21.203125 C 19.515625 -21.15625 19.5625 -21.09375 19.5625 -21.0625 L 25.984375 0 L 28.921875 0 L 34.75 -19.0625 C 36 -23.4375 36.671875 -24.09375 38.765625 -24.09375 L 38.765625 -24.453125 L 32.015625 -24.453125 L 32.015625 -24.09375 C 34.125 -24.09375 34.953125 -23.609375 34.953125 -22.140625 C 34.953125 -21.40625 34.75 -20.390625 34.359375 -19.0625 L 29.296875 -2.796875 L 23.8125 -20.640625 C 23.578125 -21.40625 23.46875 -22 23.46875 -22.484375 C 23.46875 -23.71875 24.3125 -24.09375 26.46875 -24.09375 L 26.46875 -24.453125 L 16.171875 -24.453125 L 16.171875 -24.09375 C 18.09375 -24.09375 18.640625 -23.671875 19.3125 -21.796875 L 13.484375 -2.796875 L 8.03125 -20.640625 C 7.78125 -21.4375 7.640625 -22.03125 7.640625 -22.53125 C 7.640625 -23.71875 8.484375 -24.09375 10.609375 -24.09375 L 10.609375 -24.453125 Z M 0.34375 -24.453125 "/></g></g></g><g fill="#000000" fill-opacity="1"><g transform="translate(48.348993, 93.332357)"><g><path d="M 8.796875 -24.453125 L 8.796875 -24.09375 C 10.796875 -24.09375 11.90625 -23.921875 12.75 -23.328125 L 5.375 -4.8125 C 3.875 -0.984375 3 -0.34375 0.34375 -0.34375 L 0.34375 0 L 9.21875 0 L 9.21875 -0.34375 C 6.328125 -0.34375 5.09375 -0.796875 5.09375 -2.265625 C 5.09375 -2.90625 5.34375 -3.734375 5.765625 -4.8125 L 7.265625 -8.515625 L 19.234375 -8.515625 L 21.09375 -3.8125 C 21.40625 -3.03125 21.578125 -2.40625 21.578125 -1.921875 C 21.578125 -0.734375 20.5 -0.34375 17.703125 -0.34375 L 17.703125 0 L 30.03125 0 L 30.03125 -0.34375 C 27.203125 -0.34375 26.46875 -0.90625 25.5 -3.390625 L 17.1875 -24.453125 Z M 19.0625 -8.9375 L 11.59375 -8.9375 C 9.46875 -8.9375 8.5625 -9.640625 8.5625 -10.96875 C 8.5625 -11.453125 8.703125 -12.078125 8.9375 -12.78125 L 13.03125 -23.125 C 13.546875 -22.625 13.96875 -21.890625 14.390625 -20.8125 Z M 19.0625 -8.9375 "/></g></g></g><g fill="#000000" fill-opacity="1"><g transform="translate(31.495133, 81.975442)"><g><path d="M 15.09375 -20 C 12.953125 -20 11.46875 -19.71875 10.25 -19.015625 C 8.625 -18.234375 8.0625 -16.8125 8.0625 -15.359375 C 8.0625 -13.71875 8.5625 -12.109375 10.625 -9.828125 C 9.578125 -10.421875 8.359375 -10.703125 7.015625 -10.703125 C 3.6875 -10.703125 1.796875 -8.703125 1.796875 -6 C 1.796875 -2.0625 5.125 0.28125 11.546875 0.28125 C 14.671875 0.28125 17.09375 -0.390625 18.9375 -1.546875 C 20.390625 -0.390625 21.96875 0.28125 23.328125 0.28125 C 25.53125 0.28125 26.59375 -0.03125 27.671875 -1.09375 L 27.4375 -1.328125 C 26.765625 -0.640625 26.375 -0.421875 25.234375 -0.421875 C 24.109375 -0.421875 22.984375 -1.578125 21.96875 -2.59375 L 21.125 -3.4375 C 22.5625 -5.1875 23.21875 -7.359375 23.21875 -9.578125 C 23.21875 -10.59375 23.671875 -10.984375 26.03125 -10.984375 L 26.03125 -11.265625 L 20.140625 -11.265625 L 20.140625 -10.984375 C 22.515625 -10.984375 22.953125 -10.59375 22.953125 -9.578125 C 22.953125 -7.375 22.234375 -5.328125 20.8125 -3.75 L 14.59375 -9.96875 C 12.375 -12.203125 11.234375 -14.28125 11.234375 -15.859375 C 11.234375 -18.140625 12.515625 -19.71875 15.09375 -19.71875 C 17.828125 -19.71875 19.1875 -18.484375 19.6875 -17.046875 C 19.40625 -17.359375 19.046875 -17.546875 18.484375 -17.546875 C 17.375 -17.546875 16.65625 -16.8125 16.65625 -15.71875 C 16.65625 -14.625 17.375 -13.921875 18.484375 -13.921875 C 19.578125 -13.921875 20.28125 -14.625 20.28125 -15.71875 C 20.28125 -17.75 18.796875 -20 15.09375 -20 Z M 18.515625 -1.921875 C 16.953125 -1.046875 15.015625 -0.5 12.765625 -0.5 C 7.65625 -0.5 4.984375 -2.84375 4.984375 -6.34375 C 4.984375 -8.203125 6.109375 -9.546875 8.390625 -9.546875 C 9.640625 -9.546875 11.21875 -9.15625 12.203125 -8.171875 L 17.96875 -2.421875 C 18.140625 -2.25 18.3125 -2.078125 18.515625 -1.921875 Z M 18.515625 -1.921875 "/></g></g></g></svg>